<svg id="Layer_1" data-name="Layer 1" xmlns="http://www.w3.org/2000/svg" viewBox="0 0 713.61 984.15"><title>calories</title><path d="M487.38,1004.07c-18.86-3.17-37.89-5.6-56.56-9.65C295.14,965,183.64,846.75,160.4,709.94c-12.19-71.74-1.88-141,19.53-209.11C227.85,348.44,304.48,212.18,414.09,95.54c23.5-25,51.76-45.58,78.11-67.86,10.17-8.59,21.9-10.29,34-3.85C538,30.1,542,40.58,542,53.42q-.13,103.26,0,206.53c0,3.42,0,6.83,0,13,4.28-4.14,6.68-6.4,9-8.73q53.67-53.65,107.33-107.32c19.44-19.42,38.65-17.47,53.83,5.74,54,82.63,91.27,172.8,119.19,267.06,18.93,63.93,34.24,128.72,37.06,195.6,5.42,128.37-43.62,231.93-145.78,309.51-52.93,40.2-113.49,62.15-179.86,67.71a30.63,30.63,0,0,0-5.42,1.51ZM482,114.88l-2.46-1.23c-10.6,10.87-21.58,21.4-31.73,32.67-89,98.78-153.89,211.9-199.16,336.53C230.8,532,216.24,582.44,215.31,635c-2.12,119.87,50,210.3,152.72,271.79,2.23,1.34,4.79,2.13,7.92,3.5-17.58-59-3.11-90.71,17-139.19,25.54-61.58,58-119.68,91.65-177.12,14.19-24.22,40.81-24.11,55.06.09,11.2,19,22.16,38.2,32.68,57.59C600,702.56,627,753.77,645.83,808.75c8.08,23.53,13.59,47.44,8.73,72.52-1.86,9.6-4.22,19.1-6.52,29.37,2.48-1.08,4.53-1.77,6.39-2.81q83-46.24,125.19-131.37c31.21-63.08,34.87-129.55,24.4-197.75-12.18-79.38-34.31-156-63.95-230.57a903.09,903.09,0,0,0-63-129.08c-2.6,4.17-4,7.68-6.45,10.14q-65.74,66.06-131.74,131.85a74.09,74.09,0,0,1-10,8.93,29.32,29.32,0,0,1-45.51-17.48,62.49,62.49,0,0,1-1.26-14.28Q482,231.57,482,124.93Zm30.57,550.51c-5.1,9.25-8.9,15.9-12.47,22.67C475,735.51,449.88,782.94,433,834.16c-4.57,13.86-6.37,27.78-3.49,42.44,9,45.68,55.36,76,101.21,65.49,48.81-11.23,75.91-61.66,62.11-101.52-9.7-28-20.84-55.63-33.26-82.53C545.41,727.4,529.11,697.74,512.58,665.39Z" transform="translate(-155.19 -19.93)"/></svg>